<?xml version="1.0" encoding="utf-8"?>
<!-- Generator: Adobe Illustrator 16.0.0, SVG Export Plug-In . SVG Version: 6.00 Build 0)  -->
<!DOCTYPE svg PUBLIC "-//W3C//DTD SVG 1.1//EN" "http://www.w3.org/Graphics/SVG/1.1/DTD/svg11.dtd">
<svg version="1.1"
	 id="svg4423" xmlns:dc="http://purl.org/dc/elements/1.1/" xmlns:cc="http://creativecommons.org/ns#" xmlns:rdf="http://www.w3.org/1999/02/22-rdf-syntax-ns#" xmlns:svg="http://www.w3.org/2000/svg" xmlns:sodipodi="http://sodipodi.sourceforge.net/DTD/sodipodi-0.dtd" xmlns:inkscape="http://www.inkscape.org/namespaces/inkscape" inkscape:version="0.48.1 r9760" sodipodi:docname="AH.svg"
	 xmlns="http://www.w3.org/2000/svg" xmlns:xlink="http://www.w3.org/1999/xlink" x="0px" y="0px" width="744.094px"
	 height="1052.361px" viewBox="0 0 744.094 1052.361" enable-background="new 0 0 744.094 1052.361" xml:space="preserve">
<sodipodi:namedview  showgrid="false" inkscape:cy="442.43337" inkscape:cx="238.22195" inkscape:zoom="0.98994948" borderopacity="1.0" bordercolor="#666666" pagecolor="#ffffff" id="base" inkscape:window-maximized="0" inkscape:window-y="63" inkscape:window-x="784" inkscape:window-height="925" inkscape:current-layer="layer1" inkscape:pageshadow="2" inkscape:pageopacity="0.0" inkscape:window-width="735" inkscape:snap-page="true" inkscape:document-units="px" inkscape:snap-bbox="true" inkscape:snap-global="true">
	</sodipodi:namedview>
<g id="layer1" inkscape:label="Layer 1" inkscape:groupmode="layer">
	<g id="g8889" transform="translate(-1090.3923,198.14981)">
		<g id="g8763">
			<g id="g8869" transform="translate(-4683.8753,2918.9368)">
				<path id="rect3232" fill="#FFFFFF" stroke="#000000" stroke-width="0.9967" d="M6045.331-2746.811h201.968
					c5.871,0,10.631,4.759,10.631,10.63v290.551c0,5.871-4.76,10.63-10.631,10.63h-201.968c-5.871,0-10.63-4.759-10.63-10.63
					v-290.551C6034.701-2742.052,6039.459-2746.811,6045.331-2746.811z"/>
				<g id="g8567" transform="matrix(0.30106207,0,0,0.30106207,5730.6419,-1948.1116)">
					<path id="path7183" sodipodi:nodetypes="ccccccccccccccccccccc" inkscape:connector-curvature="0" fill="#D40000" d="
						M1033.987-2499.931v-9.092h8.839l18.814-97.228h10.704l20.737,97.228h7.133v9.092h-24.305v-9.092h6.565l-2.618-14.898h-24.532
						l-1.891,14.898h6.565v9.092H1033.987z M1077.758-2534.528l-10.656-52.049l-9.987,52.049H1077.758z"/>
					<path id="path7186" sodipodi:nodetypes="ccccccccccccccccccccc" inkscape:connector-curvature="0" fill="#D40000" d="
						M1727.391-1770.248v9.092h-8.839l-18.814,97.227h-10.708l-20.734-97.227h-7.136v-9.092h24.308v9.092h-6.565l2.615,14.898
						h24.532l1.894-14.898h-6.565v-9.092H1727.391z M1683.617-1735.651l10.659,52.049l9.987-52.049H1683.617z"/>
				</g>
			</g>
		</g>
		<path id="path8626" sodipodi:nodetypes="cccccccc" inkscape:connector-curvature="0" fill="#D40000" d="M1359.106,232.88
			c-1.583-3.473-1.757-9.405,2.971-10.208c3.563-0.458,5.012,1.198,5.301,3.742c0.142,0.743,0.562,0.788,0.694-0.059
			c0.204-2.609,2.787-4.133,4.807-3.75c5.526,0.945,5.204,7.028,3.398,11.155c-2.731,5.479-5.601,8.938-8.245,14.452
			C1364.994,242.471,1361.525,237.807,1359.106,232.88L1359.106,232.88z"/>
		<path id="path8512" sodipodi:nodetypes="ccccsccssc" inkscape:connector-curvature="0" fill="#D40000" d="M1450.39,299.284
			c7.145-0.474,10.868,5.628,11.596,10.437c0.433,0.764,0.67,0.549,0.837-0.042c0.349-6.174,5.874-11.22,10.992-10.53
			c8.328,0.108,13.39,9.375,11.967,17.219c-1.739,9.582-6.9,15.352-10.809,21.293c-4.421,6.152-10.372,15.04-12.29,19.317
			c0,0-6.048-9.205-13.917-20.03c-5.262-7.238-9.473-15.082-9.865-21.835C1438.453,307.396,1441.62,300.48,1450.39,299.284
			L1450.39,299.284z"/>
		<path id="path8648" sodipodi:nodetypes="cccccccc" inkscape:connector-curvature="0" fill="#D40000" d="M1547.486,423.567
			c-1.583,3.472-1.757,9.405,2.971,10.208c3.563,0.458,5.012-1.198,5.3-3.742c0.143-0.743,0.563-0.788,0.695,0.059
			c0.204,2.609,2.787,4.133,4.807,3.75c5.526-0.945,5.203-7.028,3.398-11.156c-2.731-5.479-5.601-8.938-8.245-14.451
			C1553.374,413.974,1549.904,418.639,1547.486,423.567L1547.486,423.567z"/>
	</g>
</g>
</svg>
