<?xml version="1.0" encoding="utf-8"?>
<!-- Generator: Adobe Illustrator 16.0.0, SVG Export Plug-In . SVG Version: 6.00 Build 0)  -->
<!DOCTYPE svg PUBLIC "-//W3C//DTD SVG 1.1//EN" "http://www.w3.org/Graphics/SVG/1.1/DTD/svg11.dtd">
<svg version="1.1" id="Слой_1" xmlns="http://www.w3.org/2000/svg" xmlns:xlink="http://www.w3.org/1999/xlink" x="0px" y="0px"
	 width="24px" height="24px" viewBox="0 0 24 24" enable-background="new 0 0 24 24" xml:space="preserve">
<path fill="#1B2024" d="M12,20.641c-3,0-5.652-1.537-7.2-3.841c0.036-2.399,4.8-3.72,7.2-3.72c2.4,0,7.165,1.32,7.2,3.72
	C17.652,19.104,15,20.641,12,20.641 M12,3.6c1.987,0,3.6,1.612,3.6,3.6c0,1.988-1.612,3.6-3.6,3.6c-1.988,0-3.6-1.612-3.6-3.6
	C8.4,5.212,10.012,3.6,12,3.6 M12,0C5.373,0,0,5.373,0,12c0,6.628,5.373,12,12,12c6.628,0,12-5.372,12-12C24,5.364,18.6,0,12,0z"/>
</svg>
