<?xml version="1.0" encoding="utf-8"?>
<!-- Generator: Adobe Illustrator 16.0.0, SVG Export Plug-In . SVG Version: 6.00 Build 0)  -->
<!DOCTYPE svg PUBLIC "-//W3C//DTD SVG 1.1//EN" "http://www.w3.org/Graphics/SVG/1.1/DTD/svg11.dtd">
<svg version="1.1"
	 id="svg4423" xmlns:dc="http://purl.org/dc/elements/1.1/" xmlns:cc="http://creativecommons.org/ns#" xmlns:rdf="http://www.w3.org/1999/02/22-rdf-syntax-ns#" xmlns:svg="http://www.w3.org/2000/svg" xmlns:sodipodi="http://sodipodi.sourceforge.net/DTD/sodipodi-0.dtd" xmlns:inkscape="http://www.inkscape.org/namespaces/inkscape" inkscape:version="0.48.1 r9760" sodipodi:docname="AC.svg"
	 xmlns="http://www.w3.org/2000/svg" xmlns:xlink="http://www.w3.org/1999/xlink" x="0px" y="0px" width="744.094px"
	 height="1052.361px" viewBox="0 0 744.094 1052.361" enable-background="new 0 0 744.094 1052.361" xml:space="preserve">
<path id="rect3232-5" fill="none" stroke="#000000" stroke-width="3" d="M271.063,370.275h201.969c5.87,0,10.63,4.76,10.63,10.631
	v290.551c0,5.871-4.76,10.63-10.63,10.63H271.063c-5.87,0-10.63-4.759-10.63-10.63V380.906
	C260.433,375.034,265.193,370.275,271.063,370.275z"/>
<path id="path3235" sodipodi:nodetypes="cccscccccscscc" inkscape:connector-curvature="0" d="M364.697,554.751
	c2.879-5.775,4.976-11.701,5.348-18.037c0.342-2.332-1.074-2.371-1.288-0.729c-4.076,15.593-25.763,11.37-25.017-3.297
	c0.604-11.895,12.419-14.453,18.582-10.564c2.434,1.433,2.296,0.575,0.968-0.911c-9.154-10.212-3.61-23.362,8.762-23.603
	c13.379,0.793,16.851,14.869,8.644,23.148c-1.021,0.994-3.283,4.19,0.123,1.956c8.287-5.889,19.788,0.442,19.553,9.521
	c-0.433,16.739-20.839,17.987-25.203,4.006c-0.42-1.55-1.629-2.329-1.295,0.305c0.604,4.767,1.856,11.953,5.438,18.205H364.697z"/>
</svg>
