<?xml version="1.0" encoding="utf-8"?>
<!-- Generator: Adobe Illustrator 16.0.0, SVG Export Plug-In . SVG Version: 6.00 Build 0)  -->
<!DOCTYPE svg PUBLIC "-//W3C//DTD SVG 1.1//EN" "http://www.w3.org/Graphics/SVG/1.1/DTD/svg11.dtd">
<svg version="1.1"
	 id="svg4423" xmlns:dc="http://purl.org/dc/elements/1.1/" xmlns:cc="http://creativecommons.org/ns#" xmlns:rdf="http://www.w3.org/1999/02/22-rdf-syntax-ns#" xmlns:svg="http://www.w3.org/2000/svg" xmlns:sodipodi="http://sodipodi.sourceforge.net/DTD/sodipodi-0.dtd" xmlns:inkscape="http://www.inkscape.org/namespaces/inkscape" inkscape:version="0.48.1 r9760" sodipodi:docname="AD.svg"
	 xmlns="http://www.w3.org/2000/svg" xmlns:xlink="http://www.w3.org/1999/xlink" x="0px" y="0px" width="744.094px"
	 height="1052.361px" viewBox="0 0 744.094 1052.361" enable-background="new 0 0 744.094 1052.361" xml:space="preserve">
<path id="rect3232-3" fill="none" stroke="#D40000" stroke-width="3" d="M271.063,370.276h201.969c5.87,0,10.63,4.759,10.63,10.63
	v290.551c0,5.871-4.76,10.63-10.63,10.63H271.063c-5.87,0-10.63-4.759-10.63-10.63V380.906
	C260.433,375.034,265.193,370.276,271.063,370.276z"/>
<path id="path3692" sodipodi:nodetypes="ccccc" inkscape:connector-curvature="0" fill="#D40000" d="M349.676,526.312
	c9.921-9.682,16.437-20.237,22.667-30.389c5.465,11.17,13.307,20.942,21.786,30.389c-9.073,9.369-16.104,19.387-21.759,29.918
	C366.103,545.434,359.504,535.658,349.676,526.312z"/>
</svg>
