<?xml version="1.0" encoding="utf-8"?>
<!-- Generator: Adobe Illustrator 16.0.0, SVG Export Plug-In . SVG Version: 6.00 Build 0)  -->
<!DOCTYPE svg PUBLIC "-//W3C//DTD SVG 1.1//EN" "http://www.w3.org/Graphics/SVG/1.1/DTD/svg11.dtd">
<svg version="1.1"
	 id="svg4423" xmlns:dc="http://purl.org/dc/elements/1.1/" xmlns:cc="http://creativecommons.org/ns#" xmlns:rdf="http://www.w3.org/1999/02/22-rdf-syntax-ns#" xmlns:svg="http://www.w3.org/2000/svg" xmlns:sodipodi="http://sodipodi.sourceforge.net/DTD/sodipodi-0.dtd" xmlns:inkscape="http://www.inkscape.org/namespaces/inkscape" inkscape:version="0.48.1 r9760" sodipodi:docname="AH.svg"
	 xmlns="http://www.w3.org/2000/svg" xmlns:xlink="http://www.w3.org/1999/xlink" x="0px" y="0px" width="744.094px"
	 height="1052.361px" viewBox="0 0 744.094 1052.361" enable-background="new 0 0 744.094 1052.361" xml:space="preserve">
<path id="rect3232" fill="none" stroke="#D40000" stroke-width="3" d="M271.063,370.276h201.968c5.871,0,10.631,4.759,10.631,10.63
	v290.551c0,5.871-4.76,10.63-10.631,10.63H271.063c-5.871,0-10.63-4.759-10.63-10.63V380.906
	C260.433,375.034,265.192,370.276,271.063,370.276z"/>
<path id="path8512" sodipodi:nodetypes="ccccsccssc" inkscape:connector-curvature="0" fill="#D40000" d="M359.997,497.434
	c7.145-0.474,10.868,5.628,11.596,10.437c0.433,0.764,0.67,0.549,0.837-0.042c0.349-6.174,5.874-11.22,10.992-10.53
	c8.328,0.108,13.39,9.375,11.967,17.219c-1.739,9.582-6.9,15.352-10.809,21.293c-4.421,6.152-10.372,15.04-12.29,19.317
	c0,0-6.048-9.205-13.917-20.03c-5.262-7.238-9.473-15.082-9.865-21.835C348.061,505.546,351.228,498.63,359.997,497.434
	L359.997,497.434z"/>
</svg>
