<?xml version="1.0" encoding="utf-8"?>
<!-- Generator: Adobe Illustrator 16.0.0, SVG Export Plug-In . SVG Version: 6.00 Build 0)  -->
<!DOCTYPE svg PUBLIC "-//W3C//DTD SVG 1.1//EN" "http://www.w3.org/Graphics/SVG/1.1/DTD/svg11.dtd">
<svg version="1.1" id="Слой_1" xmlns="http://www.w3.org/2000/svg" xmlns:xlink="http://www.w3.org/1999/xlink" x="0px" y="0px"
	 width="24px" height="24px" viewBox="0 0 24 24" enable-background="new 0 0 24 24" xml:space="preserve">
<g>
	<path d="M11.891,9.493c0.039-0.268,0.017-0.549-0.079-0.823c-0.318-0.911-1.317-1.394-2.229-1.075
		c-0.911,0.318-1.394,1.318-1.076,2.23c0.095,0.272,0.252,0.506,0.45,0.692c-0.897,0.326-1.37,1.316-1.055,2.22
		c0.318,0.912,1.318,1.394,2.229,1.077c0.44-0.153,0.779-0.468,0.977-0.852c0.102,0.646,0.112,1.461-0.428,1.65l1.205-0.42
		l1.205-0.422c-0.54,0.189-1.039-0.456-1.362-1.025c0.396,0.178,0.855,0.211,1.295,0.057c0.911-0.317,1.394-1.317,1.075-2.228
		C13.783,9.671,12.796,9.19,11.891,9.493z"/>
	<path d="M5.287,5.827c0.011-0.083,0.005-0.169-0.024-0.254C5.164,5.291,4.854,5.142,4.572,5.24C4.29,5.338,4.141,5.648,4.239,5.93
		c0.03,0.084,0.079,0.156,0.14,0.214C4.101,6.245,3.954,6.552,4.053,6.832C4.151,7.113,4.46,7.262,4.742,7.164
		C4.878,7.117,4.983,7.02,5.044,6.9c0.031,0.2,0.034,0.453-0.132,0.511l0.373-0.13l0.372-0.13C5.491,7.21,5.336,7.01,5.236,6.834
		c0.122,0.055,0.265,0.065,0.4,0.018c0.282-0.098,0.432-0.407,0.333-0.69C5.873,5.882,5.567,5.733,5.287,5.827z"/>
	<path d="M16.709,17.036c-0.013,0.084-0.005,0.171,0.023,0.256c0.099,0.283,0.409,0.431,0.69,0.332
		c0.283-0.097,0.431-0.407,0.333-0.689c-0.03-0.084-0.078-0.156-0.139-0.214c0.276-0.102,0.425-0.407,0.325-0.688
		c-0.098-0.281-0.407-0.432-0.69-0.332c-0.135,0.047-0.24,0.145-0.301,0.263c-0.031-0.199-0.034-0.452,0.132-0.511l-0.373,0.13
		l-0.372,0.13c0.168-0.059,0.32,0.142,0.421,0.317c-0.121-0.055-0.264-0.065-0.399-0.018c-0.283,0.098-0.432,0.408-0.334,0.69
		C16.122,16.982,16.429,17.132,16.709,17.036z"/>
	<path d="M20.585,18.238c0.074-0.151,0.083-0.326,0.027-0.485l-6.05-17.329c-0.055-0.159-0.172-0.29-0.324-0.362
		c-0.151-0.074-0.326-0.084-0.484-0.028L1.672,4.252C1.341,4.367,1.166,4.729,1.281,5.061l6.05,17.329
		c0.055,0.16,0.172,0.289,0.324,0.362c0.087,0.042,0.181,0.063,0.275,0.063c0.071,0,0.142-0.011,0.209-0.036l12.083-4.217
		C20.382,18.507,20.511,18.391,20.585,18.238z M8.321,21.372L2.69,5.242l10.882-3.799l5.632,16.13L8.321,21.372z"/>
	<path d="M16.892,1.609c-0.115-0.331-0.479-0.506-0.81-0.39c-0.331,0.115-0.506,0.478-0.391,0.809l5.842,16.729l-11.483,4.01
		c-0.331,0.115-0.506,0.478-0.39,0.81c0.092,0.262,0.337,0.426,0.6,0.426c0.069,0,0.14-0.012,0.209-0.036l12.082-4.218
		c0.331-0.116,0.505-0.479,0.39-0.81L16.892,1.609z"/>
</g>
</svg>
