<?xml version="1.0" encoding="utf-8"?>
<!-- Generator: Adobe Illustrator 16.0.0, SVG Export Plug-In . SVG Version: 6.00 Build 0)  -->
<!DOCTYPE svg PUBLIC "-//W3C//DTD SVG 1.1//EN" "http://www.w3.org/Graphics/SVG/1.1/DTD/svg11.dtd">
<svg version="1.1"
	 id="svg4423" xmlns:dc="http://purl.org/dc/elements/1.1/" xmlns:cc="http://creativecommons.org/ns#" xmlns:rdf="http://www.w3.org/1999/02/22-rdf-syntax-ns#" xmlns:svg="http://www.w3.org/2000/svg" xmlns:sodipodi="http://sodipodi.sourceforge.net/DTD/sodipodi-0.dtd" xmlns:inkscape="http://www.inkscape.org/namespaces/inkscape" inkscape:version="0.48.1 r9760" sodipodi:docname="AS.svg"
	 xmlns="http://www.w3.org/2000/svg" xmlns:xlink="http://www.w3.org/1999/xlink" x="0px" y="0px" width="744.094px"
	 height="1052.361px" viewBox="0 0 744.094 1052.361" enable-background="new 0 0 744.094 1052.361" xml:space="preserve">
<path id="rect3232-1" fill="none" stroke="#000000" stroke-width="3" d="M271.063,370.275h201.969c5.87,0,10.63,4.76,10.63,10.631
	v290.551c0,5.871-4.76,10.63-10.63,10.63H271.063c-5.87,0-10.63-4.759-10.63-10.63V380.906
	C260.433,375.034,265.193,370.275,271.063,370.275z"/>
<path id="path3192" sodipodi:nodetypes="ccsscsccccc" inkscape:connector-curvature="0" d="M370.759,537.527
	c0.015-2.025-1.587-2.064-1.569-0.585c-0.134,7.429-6.416,11.086-10.98,10.219c-7.036-1.338-9.281-8.322-9.215-12.436
	c0.208-12.696,12.988-22.059,24.521-38.335c8.45,14.69,22.397,26.229,23.223,37.586c1.098,15.098-18.009,20.729-20.736,3.133
	c-0.177-1.243-1.64-1.802-1.526-0.065c0.414,4.823-0.175,6.832,5.266,18.72h-14.222
	C368.668,550.208,370.544,543.388,370.759,537.527L370.759,537.527z"/>
</svg>
